<?xml version="1.0" standalone="no"?>
<!DOCTYPE svg PUBLIC "-//W3C//DTD SVG 20010904//EN"
 "http://www.w3.org/TR/2001/REC-SVG-20010904/DTD/svg10.dtd">
<svg version="1.0" xmlns="http://www.w3.org/2000/svg"
 width="512.000000pt" height="512.000000pt" viewBox="0 0 512.000000 512.000000"
 preserveAspectRatio="xMidYMid meet">

<g transform="translate(0.000000,512.000000) scale(0.100000,-0.100000)"
fill="#000000" stroke="none">
<path d="M0 2560 l0 -2560 2560 0 2560 0 0 2560 0 2560 -2560 0 -2560 0 0
-2560z m4740 -5 l0 -2135 -605 0 -604 0 25 25 c14 14 39 28 54 32 16 3 31 12
34 20 3 8 10 11 16 8 6 -3 13 0 16 9 3 8 11 13 17 10 7 -2 29 12 50 31 21 19
42 35 48 35 5 0 9 7 9 15 0 8 6 15 13 15 21 0 48 24 51 45 2 11 10 19 17 18 8
-1 22 9 32 22 11 15 13 25 6 25 -6 0 8 19 32 43 51 51 132 141 130 145 -2 4
21 31 54 63 16 16 25 29 20 29 -5 0 -2 6 7 12 8 7 21 29 29 48 7 19 26 53 40
75 15 23 31 54 35 70 4 16 13 40 20 54 8 14 14 33 14 42 0 14 27 80 51 122 5
10 7 22 3 28 -3 5 2 21 11 35 9 13 14 28 11 32 -2 4 8 30 22 57 22 41 37 54
85 77 53 26 57 30 56 60 -2 28 -2 29 -6 8 -11 -59 -43 -64 -115 -20 -26 17
-50 30 -52 30 -3 0 -114 52 -248 116 -217 104 -482 224 -494 224 -2 0 -4 -24
-4 -54 0 -46 -3 -54 -21 -59 -12 -3 -18 -10 -15 -16 8 -12 235 -189 369 -286
52 -38 93 -74 90 -79 -4 -5 -1 -6 6 -2 7 5 21 0 31 -9 14 -13 17 -23 10 -40
-6 -15 -4 -27 3 -35 7 -7 0 -5 -15 5 -15 9 -26 20 -23 24 2 4 -1 8 -8 8 -17 0
-142 79 -267 169 -169 120 -346 239 -332 222 9 -11 10 -18 2 -23 -5 -3 -10
-12 -10 -18 0 -7 4 -6 10 3 7 11 10 4 10 -27 0 -24 -4 -43 -8 -43 -5 0 -17 -6
-27 -14 -19 -13 -12 -22 105 -143 69 -70 195 -204 279 -296 85 -93 181 -189
213 -213 32 -25 58 -52 58 -61 0 -26 -31 -53 -61 -53 -23 0 -53 27 -171 152
-79 84 -231 241 -338 348 -107 107 -166 165 -131 129 l63 -66 -31 -6 c-25 -5
-31 -12 -31 -31 0 -35 -10 -56 -27 -56 -10 0 -13 -6 -9 -16 3 -9 2 -12 -4 -9
-6 4 -3 -6 7 -22 10 -15 37 -57 60 -93 23 -36 74 -117 114 -180 40 -63 101
-159 136 -212 63 -97 75 -131 49 -141 -10 -4 -23 7 -38 31 -12 20 -43 62 -67
92 -43 52 -132 179 -196 279 -28 44 -130 188 -165 233 -14 18 -15 15 -12 -31
4 -47 2 -51 -21 -57 -18 -4 -28 -15 -32 -35 -9 -40 -22 -44 -39 -12 -36 67 -9
-4 88 -230 58 -133 127 -291 155 -351 28 -59 51 -113 51 -119 0 -17 -32 -47
-50 -47 -20 0 -51 34 -69 75 -70 159 -129 294 -156 360 -35 84 -120 264 -131
274 -3 3 1 -11 10 -32 15 -38 13 -61 -11 -85 -7 -7 -13 -20 -13 -28 0 -22 -38
-54 -64 -54 -18 0 -25 7 -30 32 -3 17 -8 29 -10 27 -2 -2 5 -53 15 -114 10
-60 23 -147 29 -192 6 -46 22 -132 36 -193 13 -61 22 -115 19 -120 -3 -4 -20
-8 -39 -8 -19 0 -49 -3 -66 -7 -23 -5 -30 -4 -26 4 4 6 25 11 47 11 50 0 50 8
4 137 -19 54 -44 145 -55 203 -12 57 -24 107 -27 110 -3 3 -3 -24 0 -59 3 -41
2 -59 -4 -50 -7 11 -9 9 -9 -8 0 -13 -6 -23 -14 -23 -8 0 -17 -7 -20 -16 -3
-8 -10 -12 -16 -9 -6 4 -10 -8 -10 -29 0 -32 -3 -36 -26 -36 -30 0 -55 -22
-71 -64 -9 -24 -12 -27 -13 -11 -2 14 -5 11 -10 -10 -5 -19 -9 21 -10 110 l-3
140 -8 -155 c-4 -85 -5 -188 -2 -228 4 -61 3 -76 -12 -92 -36 -40 -71 -19 -92
54 -7 26 -11 33 -12 19 -1 -20 -6 -23 -43 -23 -70 0 -238 23 -238 33 0 5 8 6
17 3 9 -4 20 -1 25 6 8 10 11 10 15 1 2 -7 12 -13 21 -13 15 0 15 2 2 10 -13
8 -13 10 2 10 9 0 18 5 20 12 2 6 15 13 28 15 29 4 29 4 32 33 3 21 -2 25 -42
32 -25 4 -46 12 -48 18 -8 23 -31 7 -40 -27 -10 -38 -10 -37 -12 22 l-1 60
-15 -45 c-7 -25 -14 -66 -14 -91 0 -25 -3 -48 -6 -51 -6 -7 -144 22 -224 47
-107 33 -140 47 -140 61 0 7 11 37 23 66 41 91 70 169 65 173 -2 3 -26 -50
-53 -118 -51 -127 -76 -167 -107 -167 -25 0 -52 44 -44 74 5 20 1 24 -25 30
-42 8 -198 88 -275 140 -93 62 -253 197 -260 218 -5 18 -6 18 -31 -2 -35 -27
-59 -25 -80 6 -13 21 -14 32 -6 54 10 27 5 34 -83 140 -52 61 -94 116 -94 122
0 5 -6 8 -13 5 -8 -3 -14 0 -14 6 0 21 -37 91 -41 78 -5 -15 23 -74 59 -125
16 -21 29 -50 29 -63 0 -32 49 -135 72 -151 10 -7 18 -18 18 -24 0 -20 31 -47
48 -41 11 3 13 2 6 -4 -18 -12 5 -111 27 -118 9 -3 20 -17 23 -31 4 -14 31
-52 61 -84 30 -33 55 -64 55 -70 0 -5 6 -10 14 -10 7 0 19 -13 26 -30 7 -16
17 -30 22 -30 9 0 77 -59 111 -97 12 -13 26 -23 33 -23 7 0 33 -19 57 -43 65
-61 86 -77 100 -77 6 0 19 -5 27 -10 10 -6 -200 -10 -602 -10 l-618 0 0 2135
0 2135 2180 0 2180 0 0 -2135z m-2086 -2050 c3 -8 1 -15 -4 -15 -6 0 -10 7
-10 15 0 8 2 15 4 15 2 0 6 -7 10 -15z m89 -2 c-7 -2 -19 -2 -25 0 -7 3 -2 5
12 5 14 0 19 -2 13 -5z"/>
<path d="M3855 3759 c-105 -104 -298 -298 -430 -429 l-241 -239 34 -40 34 -41
43 38 c92 81 825 555 787 509 -21 -25 14 -29 61 -7 23 11 34 15 23 8 -10 -7
-52 -36 -92 -65 -40 -28 -191 -131 -336 -229 -145 -97 -282 -192 -305 -209
-23 -18 -66 -45 -96 -60 l-55 -29 21 -43 c12 -24 26 -41 32 -39 5 3 64 28 130
57 66 28 179 78 252 110 73 32 154 67 180 78 234 92 543 231 543 245 0 18
-133 262 -181 331 -62 90 -191 244 -204 244 -6 1 -96 -85 -200 -190z m324
-132 c-2 -2 -17 -11 -34 -21 l-30 -17 24 20 c13 12 28 21 34 21 6 0 8 -1 6 -3z"/>
<path d="M1002 3842 c-108 -128 -136 -168 -118 -175 9 -4 21 11 34 44 12 27
28 52 36 55 9 3 16 12 16 19 0 20 49 55 67 48 16 -6 66 44 58 57 -3 5 1 10 7
13 7 2 31 -12 53 -32 30 -27 28 -23 -10 17 -27 28 -52 52 -55 52 -3 0 -42 -44
-88 -98z"/>
<path d="M1030 3810 c0 -5 7 -10 15 -10 8 0 15 5 15 10 0 6 -7 10 -15 10 -8 0
-15 -4 -15 -10z"/>
<path d="M1092 3658 c-2 -10 -10 -18 -18 -18 -8 0 -11 -6 -8 -15 4 -8 11 -12
17 -8 6 3 7 1 3 -5 -4 -7 2 -21 13 -33 11 -12 18 -27 14 -32 -4 -6 2 -8 15 -5
13 4 20 2 16 -4 -7 -12 27 -38 40 -31 5 4 6 2 3 -4 -3 -5 26 -30 64 -54 39
-24 128 -81 196 -127 69 -45 128 -80 131 -78 2 3 13 1 24 -5 26 -14 68 -3 68
17 0 8 4 13 9 10 5 -4 12 8 16 25 4 18 10 28 14 23 3 -5 24 -25 46 -44 22 -19
-14 20 -79 87 -66 67 -124 119 -129 116 -6 -3 -7 -2 -4 4 7 11 -160 179 -169
171 -2 -3 18 -27 46 -53 27 -27 48 -50 46 -52 -8 -8 -36 10 -36 24 0 8 -4 11
-10 8 -5 -3 -10 -1 -10 4 0 6 -11 11 -25 11 -14 0 -25 4 -25 8 0 5 -16 14 -35
22 -23 9 -31 16 -23 21 23 14 -45 32 -126 33 -68 1 -80 -2 -84 -16z m408 -138
c6 -11 7 -20 2 -20 -10 0 -32 21 -32 32 0 16 19 8 30 -12z m96 -92 c23 -27 24
-29 3 -10 -14 12 -31 22 -38 22 -7 0 -9 5 -6 10 8 14 8 14 41 -22z m99 -106
c-3 -3 -6 -3 -7 -1 -2 2 -16 20 -33 39 l-30 35 37 -34 c21 -19 36 -37 33 -39z"/>
<path d="M1345 3670 c3 -5 8 -10 11 -10 2 0 4 5 4 10 0 6 -5 10 -11 10 -5 0
-7 -4 -4 -10z"/>
<path d="M782 3512 c-40 -78 -72 -144 -72 -146 0 -5 75 -40 110 -51 17 -5 20
-4 15 5 -5 9 -4 11 4 6 6 -4 9 -11 7 -15 -3 -4 39 -27 92 -51 53 -24 142 -63
197 -88 189 -85 442 -192 454 -192 3 0 -2 6 -10 13 -8 6 -12 11 -10 10 8 -5
42 47 44 66 1 17 3 18 24 4 13 -9 26 -14 28 -11 3 3 -27 27 -67 53 -40 27
-124 86 -187 133 -118 87 -257 175 -278 175 -7 0 -10 3 -8 7 8 12 -33 42 -46
34 -7 -4 -10 -3 -5 4 3 6 -26 30 -71 57 -90 55 -135 91 -144 114 -4 10 -31
-34 -77 -127z m-35 -148 c-3 -3 -12 -4 -19 -1 -8 3 -5 6 6 6 11 1 17 -2 13 -5z"/>
<path d="M1070 3576 c0 -2 8 -10 18 -17 15 -13 16 -12 3 4 -13 16 -21 21 -21
13z"/>
<path d="M3273 3518 c-15 -20 -25 -38 -20 -38 3 0 12 11 21 25 17 26 16 35 -1
13z"/>
<path d="M4405 3243 c-100 -41 -720 -307 -890 -382 -88 -38 -159 -73 -158 -78
1 -4 9 -26 17 -48 10 -27 15 -33 16 -18 0 25 5 27 130 48 52 9 172 32 265 51
146 30 465 83 502 84 7 0 10 -7 7 -15 -4 -9 0 -15 7 -15 40 -1 -39 -24 -203
-60 -101 -21 -239 -52 -308 -68 -129 -30 -301 -67 -357 -76 -24 -4 -33 -1 -36
12 -3 9 -5 -6 -6 -34 l-1 -51 616 -7 c339 -4 620 -4 624 1 10 10 -5 165 -30
308 -25 143 -99 375 -120 374 -8 0 -42 -12 -75 -26z"/>
<path d="M646 3221 c-3 -21 -21 -88 -40 -147 l-34 -109 51 -8 c85 -13 319 -56
535 -98 112 -22 206 -38 209 -35 3 2 -11 8 -31 11 -30 6 -33 9 -21 21 7 8 21
14 30 14 9 0 13 5 10 11 -4 6 3 13 15 16 15 4 20 11 17 24 -6 23 -9 23 41 -1
22 -11 45 -20 50 -20 6 0 42 -14 82 -31 40 -17 74 -29 76 -26 2 2 -81 40 -184
85 -103 44 -244 106 -315 137 -70 31 -133 53 -139 49 -6 -4 -8 -3 -5 3 4 6 -6
16 -21 23 -67 31 -293 120 -306 120 -8 0 -16 -15 -20 -39z m302 -86 c-6 -6
-58 8 -58 16 0 4 14 3 31 -3 16 -6 29 -12 27 -13z m329 -281 c-3 -3 -12 -4
-19 -1 -8 3 -5 6 6 6 11 1 17 -2 13 -5z"/>
<path d="M2728 3233 c7 -3 16 -2 19 1 4 3 -2 6 -13 5 -11 0 -14 -3 -6 -6z"/>
<path d="M2813 3207 c15 -7 24 -17 20 -21 -4 -4 1 -4 12 0 11 5 1 -10 -23 -34
-24 -23 -47 -42 -53 -42 -5 0 -17 -16 -26 -34 -14 -30 -19 -33 -35 -25 -11 6
-17 13 -14 17 4 3 -7 11 -24 18 -16 7 -30 19 -30 26 0 7 -9 19 -19 25 -18 12
-19 11 -10 -16 6 -17 7 -64 2 -124 -5 -52 -6 -94 -2 -91 4 2 9 -6 12 -17 8
-30 -22 -67 -58 -72 -20 -2 -13 -4 20 -5 95 -4 204 -78 240 -165 23 -55 21
-165 -3 -220 -45 -101 -165 -174 -270 -164 -97 10 -188 72 -234 160 -30 58
-29 170 1 224 l22 38 -26 -28 c-14 -15 -25 -24 -25 -19 0 5 -9 12 -20 15 -13
3 -20 14 -21 29 l0 23 -10 -25 c-6 -13 -15 -28 -21 -31 -6 -4 -56 15 -110 42
-93 47 -98 51 -99 82 -1 18 -3 24 -6 14 -9 -34 6 -64 37 -77 26 -11 28 -15 18
-28 -11 -13 -11 -14 2 -7 13 8 13 7 1 -8 -7 -9 -9 -17 -3 -17 16 0 -11 -50
-28 -51 -26 -2 63 -18 106 -18 22 -1 45 -6 52 -13 17 -17 15 -55 -4 -62 -23
-9 -222 -7 -227 2 -2 4 -2 1 0 -7 3 -11 1 -12 -12 -1 -12 10 -15 10 -15 -5 0
-13 6 -15 30 -10 34 8 35 7 16 -30 -8 -15 -17 -22 -21 -16 -3 6 -3 16 0 21 3
6 -1 10 -10 10 -11 0 -15 -5 -11 -15 3 -8 1 -15 -4 -15 -5 0 -12 -11 -16 -25
-6 -25 -6 -25 -25 10 -23 43 -26 186 -5 285 16 73 13 91 -4 33 -18 -59 -24
-270 -11 -349 27 -153 132 -328 252 -418 135 -101 280 -150 449 -151 104 0
125 3 218 34 187 61 346 192 427 351 28 56 72 225 81 311 13 140 -59 358 -158
475 -80 94 -236 198 -328 218 -23 5 -23 5 3 -7z m17 -123 c11 -13 7 -28 -25
-97 -22 -45 -46 -90 -54 -99 -17 -22 -50 -23 -58 -3 -6 17 40 155 64 192 18
26 55 30 73 7z m180 -147 c0 -6 -34 -44 -75 -85 -63 -64 -77 -73 -90 -62 -28
23 -16 49 57 126 l72 76 18 -22 c10 -12 18 -27 18 -33z m116 -163 c8 -31 -4
-40 -104 -83 -78 -34 -102 -31 -102 11 0 14 21 29 83 58 98 47 115 48 123 14z
m-836 -199 c0 -8 -4 -15 -10 -15 -5 0 -7 7 -4 15 4 8 8 15 10 15 2 0 4 -7 4
-15z m884 -8 c10 -7 16 -22 14 -33 -3 -17 -13 -19 -118 -19 -103 0 -115 2
-118 18 -8 42 3 47 106 47 65 0 104 -4 116 -13z m-897 -49 c-3 -7 -5 -2 -5 12
0 14 2 19 5 13 2 -7 2 -19 0 -25z m6 -33 c4 -8 2 -17 -3 -20 -6 -4 -10 3 -10
14 0 25 6 27 13 6z m17 -55 c0 -5 -4 -10 -9 -10 -6 0 -13 5 -16 10 -3 6 1 10
9 10 9 0 16 -4 16 -10z m-68 -38 c-4 -31 -10 -37 -85 -73 -100 -48 -120 -49
-141 -7 -9 17 -14 34 -11 36 3 3 5 0 5 -6 0 -7 8 -5 20 6 27 23 169 81 195 79
17 -1 20 -6 17 -35z m808 -5 c73 -29 85 -37 88 -59 2 -13 -4 -30 -12 -38 -13
-10 -29 -6 -93 25 -93 43 -113 60 -106 86 7 26 25 24 123 -14z m-730 -126 c0
-9 -30 -49 -68 -90 -57 -62 -71 -73 -90 -67 -24 8 -29 41 -9 66 7 8 41 41 75
73 51 46 67 55 78 46 8 -6 14 -19 14 -28z m641 -28 c69 -66 80 -88 57 -111
-23 -23 -45 -12 -111 57 -68 70 -77 87 -55 109 22 22 39 13 109 -55z m-501
-64 c0 -22 -62 -168 -76 -180 -20 -16 -48 -1 -52 29 -3 21 62 162 81 174 13 8
47 -8 47 -23z m343 -52 c20 -39 37 -82 37 -94 0 -23 -33 -48 -50 -38 -15 9
-46 73 -63 131 -14 46 -14 53 0 67 23 23 34 13 76 -66z m-192 23 c12 -43 10
-175 -3 -188 -17 -17 -45 -15 -56 5 -12 21 -3 184 11 201 15 19 40 10 48 -18z"/>
<path d="M2521 3000 c0 -36 3 -71 7 -78 5 -7 7 16 5 50 -6 91 -11 103 -12 28z"/>
<path d="M1710 3036 c0 -2 8 -10 18 -17 15 -13 16 -12 3 4 -13 16 -21 21 -21
13z"/>
<path d="M2014 2988 l-19 -23 23 19 c21 18 27 26 19 26 -2 0 -12 -10 -23 -22z"/>
<path d="M2431 2995 c1 -19 18 -51 18 -35 0 8 -4 22 -9 30 -5 8 -9 11 -9 5z"/>
<path d="M2452 2920 c0 -14 2 -19 5 -12 2 6 2 18 0 25 -3 6 -5 1 -5 -13z"/>
<path d="M557 2838 c-4 -35 -9 -105 -13 -155 l-7 -93 394 2 c217 1 360 4 319
8 -41 4 -70 7 -63 8 6 1 9 10 6 20 -2 10 3 24 11 31 14 12 16 10 16 -13 0 -22
4 -26 30 -26 29 0 30 1 30 49 l0 50 48 -4 c26 -2 66 -6 87 -9 36 -5 37 -5 10
4 -105 32 -529 129 -630 144 -39 5 -40 5 -10 -7 17 -7 32 -21 33 -32 5 -25 3
-24 42 -31 24 -5 31 -4 26 4 -4 7 -1 12 6 12 11 0 25 -48 15 -51 -1 0 -49 -3
-107 -6 -58 -3 -106 -9 -108 -14 -2 -5 -10 -9 -18 -9 -8 0 -14 -9 -14 -20 0
-25 -20 -27 -21 -2 0 10 -3 12 -6 5 -7 -18 -21 -16 -26 5 -4 16 -5 16 -6 0 0
-10 -7 -18 -15 -18 -8 0 -16 -6 -19 -12 -2 -7 -2 40 0 105 5 127 -1 155 -10
55z"/>
<path d="M728 2863 c7 -3 16 -2 19 1 4 3 -2 6 -13 5 -11 0 -14 -3 -6 -6z"/>
<path d="M2220 2817 c33 -34 62 -57 75 -56 17 0 17 2 -5 10 -14 6 -47 31 -75
57 l-50 47 55 -58z"/>
<path d="M1906 2825 c-9 -26 -7 -32 5 -12 6 10 9 21 6 23 -2 3 -7 -2 -11 -11z"/>
<path d="M2331 2818 c0 -9 -4 -25 -7 -35 -5 -17 -5 -17 6 0 6 10 9 25 7 35 -4
15 -5 15 -6 0z"/>
<path d="M1398 2813 c6 -2 18 -2 25 0 6 3 1 5 -13 5 -14 0 -19 -2 -12 -5z"/>
<path d="M1458 2803 c7 -3 16 -2 19 1 4 3 -2 6 -13 5 -11 0 -14 -3 -6 -6z"/>
<path d="M580 2760 c0 -5 5 -10 10 -10 6 0 10 5 10 10 0 6 -4 10 -10 10 -5 0
-10 -4 -10 -10z"/>
<path d="M4165 2480 c138 -3 230 -7 205 -9 -27 -2 -36 -5 -22 -8 31 -6 28 -19
-5 -18 -21 0 -28 -5 -28 -20 0 -11 7 -20 15 -20 12 0 15 -16 15 -80 l0 -80
-27 0 c-47 1 -20 -12 59 -30 104 -22 174 -44 194 -62 15 -12 17 -11 23 9 10
40 28 247 24 278 -3 17 -1 30 4 30 5 0 6 5 3 10 -4 6 -132 9 -358 8 l-352 -2
250 -6z m393 -7 c-27 -2 -69 -2 -95 0 -27 2 -5 3 47 3 52 0 74 -1 48 -3z"/>
<path d="M3918 2333 c7 -3 16 -2 19 1 4 3 -2 6 -13 5 -11 0 -14 -3 -6 -6z"/>
<path d="M4070 2294 c25 -8 63 -17 85 -19 22 -3 6 4 -35 14 -86 23 -116 26
-50 5z"/>
<path d="M4015 2210 c11 -5 29 -8 40 -8 16 0 15 2 -5 8 -34 11 -60 11 -35 0z"/>
<path d="M4098 2193 c6 -2 18 -2 25 0 6 3 1 5 -13 5 -14 0 -19 -2 -12 -5z"/>
<path d="M4380 2131 c0 -5 -12 -6 -27 -4 -21 4 -24 2 -13 -6 12 -8 9 -12 -13
-20 -16 -6 -33 -11 -38 -11 -6 0 -7 -5 -4 -11 4 -6 -2 -13 -13 -16 -23 -5 -36
-43 -22 -57 14 -14 13 -66 -1 -66 -6 0 -9 -7 -5 -15 3 -9 0 -15 -10 -15 -8 0
-13 4 -9 9 3 5 0 13 -6 17 -8 4 -9 3 -5 -4 10 -16 1 -15 -34 3 -17 9 -30 13
-30 10 0 -6 224 -115 235 -115 3 0 38 -16 77 -35 50 -25 67 -30 55 -17 -21 23
-22 52 -1 100 25 61 64 207 56 213 -8 7 -133 40 -169 44 -13 2 -23 0 -23 -4z"/>
<path d="M658 1663 c6 -2 18 -2 25 0 6 3 1 5 -13 5 -14 0 -19 -2 -12 -5z"/>
<path d="M2831 1014 c0 -11 3 -14 6 -6 3 7 2 16 -1 19 -3 4 -6 -2 -5 -13z"/>
<path d="M2192 870 c0 -14 2 -19 5 -12 2 6 2 18 0 25 -3 6 -5 1 -5 -13z"/>
<path d="M2272 845 c0 -16 2 -22 5 -12 2 9 2 23 0 30 -3 6 -5 -1 -5 -18z"/>
<path d="M2157 701 c-4 -18 -7 -45 -6 -60 1 -17 4 -11 10 19 5 25 8 52 6 60
-2 8 -6 0 -10 -19z"/>
<path d="M2511 654 c0 -11 3 -14 6 -6 3 7 2 16 -1 19 -3 4 -6 -2 -5 -13z"/>
<path d="M2368 523 c7 -3 16 -2 19 1 4 3 -2 6 -13 5 -11 0 -14 -3 -6 -6z"/>
<path d="M2428 513 c12 -2 30 -2 40 0 9 3 -1 5 -23 4 -22 0 -30 -2 -17 -4z"/>
</g>
</svg>
